<svg width="16" height="16" viewBox="0 0 16 16" fill="none" xmlns="http://www.w3.org/2000/svg">
<g id="UI Icons">
<path id="Vector" d="M6.54345 12.8212C7.958 12.8213 9.3321 12.3492 10.4481 11.4799L14.6583 15.6908C14.9728 15.9946 15.474 15.9858 15.7778 15.6713C16.0741 15.3644 16.0741 14.878 15.7778 14.5711L11.5675 10.3603C13.7244 7.58333 13.2222 3.58341 10.4456 1.42618C7.66913 -0.731045 3.66985 -0.228701 1.51295 2.54823C-0.643945 5.32517 -0.141678 9.32509 2.63483 11.4823C3.75263 12.3508 5.12796 12.8219 6.54345 12.8212ZM3.16056 3.0716C5.02889 1.20295 8.05807 1.20291 9.92644 3.07153C11.7948 4.94015 11.7948 7.96978 9.92651 9.83844C8.05817 11.7071 5.029 11.7071 3.16063 9.83851C1.29229 7.9835 1.28121 4.96485 3.13594 3.09623C3.14413 3.08799 3.15233 3.0798 3.16056 3.0716Z" fill="#7A8099" fill-opacity="0.61"/>
</g>
</svg>
